<svg width="1000" height="230" viewBox="0 0 1000 230" fill="none" xmlns="http://www.w3.org/2000/svg">
<path d="M220.161 164.6C212.861 164.6 206.311 162.8 200.511 159.2C194.711 155.5 190.111 150.55 186.711 144.35C183.411 138.05 181.761 130.95 181.761 123.05C181.761 115.15 183.561 108.05 187.161 101.75C190.861 95.45 195.811 90.5 202.011 86.9C208.311 83.2 215.361 81.35 223.161 81.35C230.961 81.35 237.961 83.2 244.161 86.9C250.361 90.5 255.261 95.45 258.861 101.75C262.561 108.05 264.411 115.15 264.411 123.05H258.561C258.561 130.95 256.861 138.05 253.461 144.35C250.161 150.55 245.611 155.5 239.811 159.2C234.011 162.8 227.461 164.6 220.161 164.6ZM223.161 151.1C228.261 151.1 232.811 149.9 236.811 147.5C240.811 145 243.961 141.65 246.261 137.45C248.561 133.15 249.711 128.35 249.711 123.05C249.711 117.65 248.561 112.85 246.261 108.65C243.961 104.35 240.811 101 236.811 98.6C232.811 96.1 228.261 94.85 223.161 94.85C218.161 94.85 213.611 96.1 209.511 98.6C205.511 101 202.311 104.35 199.911 108.65C197.611 112.85 196.461 117.65 196.461 123.05C196.461 128.35 197.611 133.15 199.911 137.45C202.311 141.65 205.511 145 209.511 147.5C213.611 149.9 218.161 151.1 223.161 151.1ZM256.761 164.15C254.561 164.15 252.711 163.45 251.211 162.05C249.811 160.55 249.111 158.7 249.111 156.5V133.55L251.961 117.65L264.411 123.05V156.5C264.411 158.7 263.661 160.55 262.161 162.05C260.761 163.45 258.961 164.15 256.761 164.15ZM294.532 112.7C294.532 106.7 295.982 101.35 298.882 96.65C301.882 91.85 305.882 88.05 310.882 85.25C315.882 82.45 321.382 81.05 327.382 81.05C333.382 81.05 337.832 82.05 340.732 84.05C343.732 85.95 344.882 88.25 344.182 90.95C343.882 92.35 343.282 93.45 342.382 94.25C341.582 94.95 340.632 95.4 339.532 95.6C338.432 95.8 337.232 95.75 335.932 95.45C329.532 94.15 323.782 94.05 318.682 95.15C313.582 96.25 309.532 98.3 306.532 101.3C303.632 104.3 302.182 108.1 302.182 112.7H294.532ZM294.682 164C292.282 164 290.432 163.4 289.132 162.2C287.832 160.9 287.182 159 287.182 156.5V89.45C287.182 87.05 287.832 85.2 289.132 83.9C290.432 82.6 292.282 81.95 294.682 81.95C297.182 81.95 299.032 82.6 300.232 83.9C301.532 85.1 302.182 86.95 302.182 89.45V156.5C302.182 158.9 301.532 160.75 300.232 162.05C299.032 163.35 297.182 164 294.682 164ZM594.257 134L584.957 123.8L631.007 82.7C632.507 81.3 634.157 80.65 635.957 80.75C637.857 80.85 639.457 81.65 640.757 83.15C642.157 84.65 642.807 86.3 642.707 88.1C642.607 89.9 641.807 91.5 640.307 92.9L594.257 134ZM587.207 164C585.007 164 583.207 163.35 581.807 162.05C580.507 160.65 579.857 158.85 579.857 156.65V54.2C579.857 52 580.507 50.25 581.807 48.95C583.207 47.55 585.007 46.85 587.207 46.85C589.407 46.85 591.157 47.55 592.457 48.95C593.857 50.25 594.557 52 594.557 54.2V156.65C594.557 158.85 593.857 160.65 592.457 162.05C591.157 163.35 589.407 164 587.207 164ZM640.757 163.25C639.157 164.55 637.357 165.1 635.357 164.9C633.457 164.8 631.857 163.95 630.557 162.35L600.107 124.7L610.607 114.8L641.807 153.2C643.107 154.8 643.657 156.55 643.457 158.45C643.357 160.25 642.457 161.85 640.757 163.25ZM691.987 164.6C684.687 164.6 678.137 162.8 672.337 159.2C666.537 155.5 661.937 150.55 658.537 144.35C655.237 138.05 653.587 130.95 653.587 123.05C653.587 115.15 655.387 108.05 658.987 101.75C662.687 95.45 667.637 90.5 673.837 86.9C680.137 83.2 687.187 81.35 694.987 81.35C702.787 81.35 709.787 83.2 715.987 86.9C722.187 90.5 727.087 95.45 730.687 101.75C734.387 108.05 736.237 115.15 736.237 123.05H730.387C730.387 130.95 728.687 138.05 725.287 144.35C721.987 150.55 717.437 155.5 711.637 159.2C705.837 162.8 699.287 164.6 691.987 164.6ZM694.987 151.1C700.087 151.1 704.637 149.9 708.637 147.5C712.637 145 715.787 141.65 718.087 137.45C720.387 133.15 721.537 128.35 721.537 123.05C721.537 117.65 720.387 112.85 718.087 108.65C715.787 104.35 712.637 101 708.637 98.6C704.637 96.1 700.087 94.85 694.987 94.85C689.987 94.85 685.437 96.1 681.337 98.6C677.337 101 674.137 104.35 671.737 108.65C669.437 112.85 668.287 117.65 668.287 123.05C668.287 128.35 669.437 133.15 671.737 137.45C674.137 141.65 677.337 145 681.337 147.5C685.437 149.9 689.987 151.1 694.987 151.1ZM728.587 164.15C726.387 164.15 724.537 163.45 723.037 162.05C721.637 160.55 720.937 158.7 720.937 156.5V133.55L723.787 117.65L736.237 123.05V156.5C736.237 158.7 735.487 160.55 733.987 162.05C732.587 163.45 730.787 164.15 728.587 164.15ZM786.608 136.25C784.408 136.25 782.558 135.55 781.058 134.15C779.658 132.65 778.958 130.8 778.958 128.6C778.958 124.7 779.958 120.45 781.958 115.85C783.958 111.15 787.058 107 791.258 103.4C794.058 101 796.608 98.65 798.908 96.35C801.308 93.95 803.208 91.25 804.608 88.25C806.108 85.15 806.858 81.4 806.858 77C806.858 73.8 806.108 70.8 804.608 68C803.108 65.2 800.958 62.95 798.158 61.25C795.458 59.45 792.108 58.55 788.108 58.55C783.208 58.55 779.158 59.45 775.958 61.25C772.758 63.05 770.358 65.55 768.758 68.75C767.258 71.95 766.508 75.7 766.508 80C766.508 82.2 765.808 84.05 764.408 85.55C763.008 86.95 761.158 87.65 758.858 87.65C756.658 87.65 754.808 86.95 753.308 85.55C751.908 84.05 751.208 82.2 751.208 80C751.208 73 752.708 66.85 755.708 61.55C758.808 56.25 763.108 52.1 768.608 49.1C774.208 46 780.708 44.45 788.108 44.45C794.608 44.45 800.358 45.85 805.358 48.65C810.458 51.35 814.458 55.15 817.358 60.05C820.358 64.85 821.858 70.5 821.858 77C821.858 82.6 820.958 87.45 819.158 91.55C817.358 95.65 814.908 99.35 811.808 102.65C808.708 105.85 805.158 109.05 801.158 112.25C798.558 114.35 796.758 117.1 795.758 120.5C794.758 123.8 794.258 126.5 794.258 128.6C794.258 130.8 793.558 132.65 792.158 134.15C790.758 135.55 788.908 136.25 786.608 136.25ZM786.608 164C783.808 164 781.358 163 779.258 161C777.258 158.9 776.258 156.45 776.258 153.65C776.258 150.75 777.258 148.3 779.258 146.3C781.358 144.2 783.808 143.15 786.608 143.15C789.508 143.15 791.958 144.2 793.958 146.3C796.058 148.3 797.108 150.75 797.108 153.65C797.108 156.45 796.058 158.9 793.958 161C791.958 163 789.508 164 786.608 164Z" fill="#13283D"/>
<path d="M499.459 85.293C499.459 83.0838 501.25 81.293 503.459 81.293H532.216C534.425 81.293 536.216 83.0838 536.216 85.293V152.638C536.216 154.847 534.425 156.638 532.216 156.638H503.459C501.25 156.638 499.459 154.847 499.459 152.638V85.293Z" fill="#D9A75E"/>
<path d="M409.729 54.5605C409.729 52.3514 411.52 50.5605 413.729 50.5605H431.675C433.885 50.5605 435.675 52.3514 435.675 54.5605V151.647C435.675 153.856 433.885 155.647 431.675 155.647H413.729C411.52 155.647 409.729 153.856 409.729 151.647V54.5605Z" fill="#5C8A98"/>
<path d="M449.729 55.5518C449.729 53.3426 451.52 51.5518 453.729 51.5518H483.567C485.776 51.5518 487.567 53.3426 487.567 55.5518V152.638C487.567 154.847 485.776 156.638 483.567 156.638H453.729C451.52 156.638 449.729 154.847 449.729 152.638V55.5518Z" fill="#0B2845"/>
<path d="M369.473 44.2234C369.398 43.1214 370.23 42.1638 371.332 42.0846L381.721 41.3373C382.823 41.2581 383.777 42.0872 383.852 43.1892L384.02 45.6609C384.095 46.7629 383.262 47.7205 382.161 47.7998L371.771 48.547C370.669 48.6262 369.716 47.7971 369.641 46.6951L369.473 44.2234Z" fill="white"/>
<path d="M459.459 68.4224C459.459 67.3178 460.355 66.4224 461.459 66.4224H476.919C478.024 66.4224 478.919 67.3178 478.919 68.4224V72.3534C478.919 73.458 478.024 74.3534 476.919 74.3534H461.459C460.355 74.3534 459.459 73.458 459.459 72.3534V68.4224Z" fill="white"/>
<path d="M508.108 145.237C508.108 144.416 508.774 143.75 509.595 143.75H527.161C527.983 143.75 528.648 144.416 528.648 145.237V145.237C528.648 146.058 527.983 146.724 527.161 146.724H509.595C508.774 146.724 508.108 146.058 508.108 145.237V145.237Z" fill="white"/>
<path d="M507.027 99.1553C507.027 98.0507 507.922 97.1553 509.027 97.1553H526.648C527.753 97.1553 528.648 98.0507 528.648 99.1553V101.104C528.648 102.208 527.753 103.104 526.648 103.104H509.027C507.922 103.104 507.027 102.208 507.027 101.104V99.1553Z" fill="white"/>
<path d="M507.027 108.06C507.027 106.965 507.915 106.078 509.01 106.078H526.666C527.761 106.078 528.648 106.965 528.648 108.06V108.06C528.648 109.155 527.761 110.043 526.666 110.043H509.01C507.915 110.043 507.027 109.155 507.027 108.06V108.06Z" fill="white"/>
<path d="M416.216 66.4224H429.189V74.3534H416.216V66.4224Z" fill="white"/>
<path d="M499.459 78.3535C499.459 76.1444 501.25 74.3535 503.459 74.3535H532.216C534.425 74.3535 536.216 76.1444 536.216 78.3535V151.647C536.216 153.856 534.425 155.647 532.216 155.647H503.459C501.25 155.647 499.459 153.856 499.459 151.647V78.3535Z" fill="#EFA240"/>
<path d="M409.729 43.6553C409.729 41.4461 411.52 39.6553 413.729 39.6553H431.675C433.885 39.6553 435.675 41.4461 435.675 43.6553V149.664C435.675 151.873 433.885 153.664 431.675 153.664H413.729C411.52 153.664 409.729 151.873 409.729 149.664V43.6553Z" fill="#D9C7B0"/>
<path d="M449.729 44.6465C449.729 42.4373 451.52 40.6465 453.729 40.6465H483.567C485.776 40.6465 487.567 42.4373 487.567 44.6465V151.646C487.567 153.856 485.776 155.646 483.567 155.646H453.729C451.52 155.646 449.729 153.856 449.729 151.646V44.6465Z" fill="#0B2845"/>
<path d="M363.444 20.603C363.34 18.3963 365.044 16.5026 367.249 16.3733L388.888 15.1048C391.093 14.9755 392.965 16.6595 393.068 18.8663L399.203 149.802C399.306 152.009 397.602 153.902 395.397 154.032L373.758 155.3C371.553 155.43 369.681 153.745 369.578 151.539L363.444 20.603Z" fill="#51A25E"/>
<path d="M371.851 32.9966C371.782 31.8942 372.619 30.9307 373.72 30.8445L384.111 30.0317C385.213 29.9455 386.161 30.7694 386.23 31.8718L386.42 34.9081C386.489 36.0105 385.652 36.974 384.551 37.0602L374.159 37.873C373.058 37.9592 372.11 37.1353 372.041 36.0329L371.851 32.9966Z" fill="white"/>
<path d="M459.459 58.5088C459.459 57.4042 460.355 56.5088 461.459 56.5088H476.919C478.024 56.5088 478.919 57.4042 478.919 58.5088V64.4226C478.919 65.5272 478.024 66.4226 476.919 66.4226H461.459C460.355 66.4226 459.459 65.5272 459.459 64.4226V58.5088Z" fill="white"/>
<path d="M508.108 143.254C508.108 142.433 508.774 141.767 509.595 141.767H527.161C527.983 141.767 528.648 142.433 528.648 143.254V143.254C528.648 144.075 527.983 144.741 527.161 144.741H509.595C508.774 144.741 508.108 144.075 508.108 143.254V143.254Z" fill="white"/>
<path d="M507.027 92.2153C507.027 91.1108 507.922 90.2153 509.027 90.2153H526.648C527.753 90.2153 528.648 91.1108 528.648 92.2153V95.155C528.648 96.2596 527.753 97.155 526.648 97.155H509.027C507.922 97.155 507.027 96.2596 507.027 95.155V92.2153Z" fill="white"/>
<path d="M507.027 102.129C507.027 101.025 507.922 100.129 509.027 100.129H526.648C527.753 100.129 528.648 101.025 528.648 102.129V104.078C528.648 105.182 527.753 106.078 526.648 106.078H509.027C507.922 106.078 507.027 105.182 507.027 104.078V102.129Z" fill="white"/>
<path d="M416.216 56.5088H429.189V66.4226H416.216V56.5088Z" fill="white"/>
<path d="M347.027 165.56C347.027 162.823 349.246 160.604 351.984 160.604H548.556C551.294 160.604 553.513 162.823 553.513 165.56V165.56C553.513 168.298 551.294 170.517 548.556 170.517H351.984C349.246 170.517 347.027 168.298 347.027 165.56V165.56Z" fill="#13283D"/>
<circle cx="785.892" cy="154.892" r="11.8919" fill="#EDA441"/>
</svg>
