<svg width="925" height="232" viewBox="0 0 925 232" fill="none" xmlns="http://www.w3.org/2000/svg">
<path d="M182.661 165.6C175.361 165.6 168.811 163.8 163.011 160.2C157.211 156.5 152.611 151.55 149.211 145.35C145.911 139.05 144.261 131.95 144.261 124.05C144.261 116.15 146.061 109.05 149.661 102.75C153.361 96.45 158.311 91.5 164.511 87.9C170.811 84.2 177.861 82.35 185.661 82.35C193.461 82.35 200.461 84.2 206.661 87.9C212.861 91.5 217.761 96.45 221.361 102.75C225.061 109.05 226.911 116.15 226.911 124.05H221.061C221.061 131.95 219.361 139.05 215.961 145.35C212.661 151.55 208.111 156.5 202.311 160.2C196.511 163.8 189.961 165.6 182.661 165.6ZM185.661 152.1C190.761 152.1 195.311 150.9 199.311 148.5C203.311 146 206.461 142.65 208.761 138.45C211.061 134.15 212.211 129.35 212.211 124.05C212.211 118.65 211.061 113.85 208.761 109.65C206.461 105.35 203.311 102 199.311 99.6C195.311 97.1 190.761 95.85 185.661 95.85C180.661 95.85 176.111 97.1 172.011 99.6C168.011 102 164.811 105.35 162.411 109.65C160.111 113.85 158.961 118.65 158.961 124.05C158.961 129.35 160.111 134.15 162.411 138.45C164.811 142.65 168.011 146 172.011 148.5C176.111 150.9 180.661 152.1 185.661 152.1ZM219.261 165.15C217.061 165.15 215.211 164.45 213.711 163.05C212.311 161.55 211.611 159.7 211.611 157.5V134.55L214.461 118.65L226.911 124.05V157.5C226.911 159.7 226.161 161.55 224.661 163.05C223.261 164.45 221.461 165.15 219.261 165.15ZM257.032 113.7C257.032 107.7 258.482 102.35 261.382 97.65C264.382 92.85 268.382 89.05 273.382 86.25C278.382 83.45 283.882 82.05 289.882 82.05C295.882 82.05 300.332 83.05 303.232 85.05C306.232 86.95 307.382 89.25 306.682 91.95C306.382 93.35 305.782 94.45 304.882 95.25C304.082 95.95 303.132 96.4 302.032 96.6C300.932 96.8 299.732 96.75 298.432 96.45C292.032 95.15 286.282 95.05 281.182 96.15C276.082 97.25 272.032 99.3 269.032 102.3C266.132 105.3 264.682 109.1 264.682 113.7H257.032ZM257.182 165C254.782 165 252.932 164.4 251.632 163.2C250.332 161.9 249.682 160 249.682 157.5V90.45C249.682 88.05 250.332 86.2 251.632 84.9C252.932 83.6 254.782 82.95 257.182 82.95C259.682 82.95 261.532 83.6 262.732 84.9C264.032 86.1 264.682 87.95 264.682 90.45V157.5C264.682 159.9 264.032 161.75 262.732 163.05C261.532 164.35 259.682 165 257.182 165ZM556.757 135L547.457 124.8L593.507 83.7C595.007 82.3 596.657 81.65 598.457 81.75C600.357 81.85 601.957 82.65 603.257 84.15C604.657 85.65 605.307 87.3 605.207 89.1C605.107 90.9 604.307 92.5 602.807 93.9L556.757 135ZM549.707 165C547.507 165 545.707 164.35 544.307 163.05C543.007 161.65 542.357 159.85 542.357 157.65V55.2C542.357 53 543.007 51.25 544.307 49.95C545.707 48.55 547.507 47.85 549.707 47.85C551.907 47.85 553.657 48.55 554.957 49.95C556.357 51.25 557.057 53 557.057 55.2V157.65C557.057 159.85 556.357 161.65 554.957 163.05C553.657 164.35 551.907 165 549.707 165ZM603.257 164.25C601.657 165.55 599.857 166.1 597.857 165.9C595.957 165.8 594.357 164.95 593.057 163.35L562.607 125.7L573.107 115.8L604.307 154.2C605.607 155.8 606.157 157.55 605.957 159.45C605.857 161.25 604.957 162.85 603.257 164.25ZM654.487 165.6C647.187 165.6 640.637 163.8 634.837 160.2C629.037 156.5 624.437 151.55 621.037 145.35C617.737 139.05 616.087 131.95 616.087 124.05C616.087 116.15 617.887 109.05 621.487 102.75C625.187 96.45 630.137 91.5 636.337 87.9C642.637 84.2 649.687 82.35 657.487 82.35C665.287 82.35 672.287 84.2 678.487 87.9C684.687 91.5 689.587 96.45 693.187 102.75C696.887 109.05 698.737 116.15 698.737 124.05H692.887C692.887 131.95 691.187 139.05 687.787 145.35C684.487 151.55 679.937 156.5 674.137 160.2C668.337 163.8 661.787 165.6 654.487 165.6ZM657.487 152.1C662.587 152.1 667.137 150.9 671.137 148.5C675.137 146 678.287 142.65 680.587 138.45C682.887 134.15 684.037 129.35 684.037 124.05C684.037 118.65 682.887 113.85 680.587 109.65C678.287 105.35 675.137 102 671.137 99.6C667.137 97.1 662.587 95.85 657.487 95.85C652.487 95.85 647.937 97.1 643.837 99.6C639.837 102 636.637 105.35 634.237 109.65C631.937 113.85 630.787 118.65 630.787 124.05C630.787 129.35 631.937 134.15 634.237 138.45C636.637 142.65 639.837 146 643.837 148.5C647.937 150.9 652.487 152.1 657.487 152.1ZM691.087 165.15C688.887 165.15 687.037 164.45 685.537 163.05C684.137 161.55 683.437 159.7 683.437 157.5V134.55L686.287 118.65L698.737 124.05V157.5C698.737 159.7 697.987 161.55 696.487 163.05C695.087 164.45 693.287 165.15 691.087 165.15ZM749.108 137.25C746.908 137.25 745.058 136.55 743.558 135.15C742.158 133.65 741.458 131.8 741.458 129.6C741.458 125.7 742.458 121.45 744.458 116.85C746.458 112.15 749.558 108 753.758 104.4C756.558 102 759.108 99.65 761.408 97.35C763.808 94.95 765.708 92.25 767.108 89.25C768.608 86.15 769.358 82.4 769.358 78C769.358 74.8 768.608 71.8 767.108 69C765.608 66.2 763.458 63.95 760.658 62.25C757.958 60.45 754.608 59.55 750.608 59.55C745.708 59.55 741.658 60.45 738.458 62.25C735.258 64.05 732.858 66.55 731.258 69.75C729.758 72.95 729.008 76.7 729.008 81C729.008 83.2 728.308 85.05 726.908 86.55C725.508 87.95 723.658 88.65 721.358 88.65C719.158 88.65 717.308 87.95 715.808 86.55C714.408 85.05 713.708 83.2 713.708 81C713.708 74 715.208 67.85 718.208 62.55C721.308 57.25 725.608 53.1 731.108 50.1C736.708 47 743.208 45.45 750.608 45.45C757.108 45.45 762.858 46.85 767.858 49.65C772.958 52.35 776.958 56.15 779.858 61.05C782.858 65.85 784.358 71.5 784.358 78C784.358 83.6 783.458 88.45 781.658 92.55C779.858 96.65 777.408 100.35 774.308 103.65C771.208 106.85 767.658 110.05 763.658 113.25C761.058 115.35 759.258 118.1 758.258 121.5C757.258 124.8 756.758 127.5 756.758 129.6C756.758 131.8 756.058 133.65 754.658 135.15C753.258 136.55 751.408 137.25 749.108 137.25ZM749.108 165C746.308 165 743.858 164 741.758 162C739.758 159.9 738.758 157.45 738.758 154.65C738.758 151.75 739.758 149.3 741.758 147.3C743.858 145.2 746.308 144.15 749.108 144.15C752.008 144.15 754.458 145.2 756.458 147.3C758.558 149.3 759.608 151.75 759.608 154.65C759.608 157.45 758.558 159.9 756.458 162C754.458 164 752.008 165 749.108 165Z" fill="#13283D"/>
<path d="M462 86C462 83.7909 463.791 82 466 82H492C494.209 82 496 83.7909 496 86V154C496 156.209 494.209 158 492 158H466C463.791 158 462 156.209 462 154V86Z" fill="#D9A75E"/>
<path d="M379 55C379 52.7909 380.791 51 383 51H399C401.209 51 403 52.7909 403 55V153C403 155.209 401.209 157 399 157H383C380.791 157 379 155.209 379 153V55Z" fill="#5C8A98"/>
<path d="M416 56C416 53.7909 417.791 52 420 52H447C449.209 52 451 53.7909 451 56V154C451 156.209 449.209 158 447 158H420C417.791 158 416 156.209 416 154V56Z" fill="#0B2845"/>
<path d="M341.761 44.5913C341.692 43.4889 342.529 42.5252 343.631 42.4388L352.944 41.7084C354.045 41.622 354.993 42.4457 355.062 43.5482L355.219 46.0745C355.288 47.177 354.451 48.1407 353.35 48.2271L344.037 48.9575C342.936 49.0438 341.987 48.2202 341.919 47.1177L341.761 44.5913Z" fill="white"/>
<path d="M425 69C425 67.8954 425.895 67 427 67H441C442.105 67 443 67.8954 443 69V73C443 74.1046 442.105 75 441 75H427C425.895 75 425 74.1046 425 73V69Z" fill="white"/>
<path d="M470 146.5C470 145.672 470.672 145 471.5 145H487.5C488.328 145 489 145.672 489 146.5V146.5C489 147.328 488.328 148 487.5 148H471.5C470.672 148 470 147.328 470 146.5V146.5Z" fill="white"/>
<path d="M469 100C469 98.8954 469.895 98 471 98H487C488.105 98 489 98.8954 489 100V102C489 103.105 488.105 104 487 104H471C469.895 104 469 103.105 469 102V100Z" fill="white"/>
<path d="M469 109C469 107.895 469.895 107 471 107H487C488.105 107 489 107.895 489 109V109C489 110.105 488.105 111 487 111H471C469.895 111 469 110.105 469 109V109Z" fill="white"/>
<path d="M385 67H397V75H385V67Z" fill="white"/>
<path d="M462 79C462 76.7909 463.791 75 466 75H492C494.209 75 496 76.7909 496 79V153C496 155.209 494.209 157 492 157H466C463.791 157 462 155.209 462 153V79Z" fill="#EFA240"/>
<path d="M379 44C379 41.7909 380.791 40 383 40H399C401.209 40 403 41.7909 403 44V151C403 153.209 401.209 155 399 155H383C380.791 155 379 153.209 379 151V44Z" fill="#D9C7B0"/>
<path d="M416 45C416 42.7909 417.791 41 420 41H447C449.209 41 451 42.7909 451 45V153C451 155.209 449.209 157 447 157H420C417.791 157 416 155.209 416 153V45Z" fill="#0B2845"/>
<path d="M336.184 20.7483C336.089 18.5412 337.799 16.6377 340.004 16.4968L359.423 15.2553C361.628 15.1143 363.492 16.7893 363.587 18.9964L369.264 151.139C369.359 153.346 367.648 155.249 365.444 155.39L346.025 156.632C343.82 156.773 341.956 155.098 341.861 152.891L336.184 20.7483Z" fill="#51A25E"/>
<path d="M343.961 33.2667C343.898 32.164 344.739 31.1939 345.839 31.1L355.155 30.3054C356.255 30.2116 357.199 31.0294 357.262 32.1322L357.439 35.2284C357.503 36.3311 356.662 37.3012 355.561 37.3951L346.246 38.1897C345.145 38.2835 344.202 37.4657 344.139 36.3629L343.961 33.2667Z" fill="white"/>
<path d="M425 59C425 57.8954 425.895 57 427 57H441C442.105 57 443 57.8954 443 59V65C443 66.1046 442.105 67 441 67H427C425.895 67 425 66.1046 425 65V59Z" fill="white"/>
<path d="M470 144.5C470 143.672 470.672 143 471.5 143H487.5C488.328 143 489 143.672 489 144.5V144.5C489 145.328 488.328 146 487.5 146H471.5C470.672 146 470 145.328 470 144.5V144.5Z" fill="white"/>
<path d="M469 93C469 91.8954 469.895 91 471 91H487C488.105 91 489 91.8954 489 93V96C489 97.1046 488.105 98 487 98H471C469.895 98 469 97.1046 469 96V93Z" fill="white"/>
<path d="M469 103C469 101.895 469.895 101 471 101H487C488.105 101 489 101.895 489 103V105C489 106.105 488.105 107 487 107H471C469.895 107 469 106.105 469 105V103Z" fill="white"/>
<path d="M385 57H397V67H385V57Z" fill="white"/>
<path d="M321 167C321 164.239 323.239 162 326 162H507C509.761 162 512 164.239 512 167V167C512 169.761 509.761 172 507 172H326C323.239 172 321 169.761 321 167V167Z" fill="#13283D"/>
<circle cx="749" cy="154" r="11" fill="#EDA441"/>
</svg>
